<svg width="202" height="201" viewBox="0 0 202 201" fill="none" xmlns="http://www.w3.org/2000/svg">
<path fill-rule="evenodd" clip-rule="evenodd" d="M190.458 55.3857C193.928 62.2155 196.536 69.2754 198.317 76.4357C197.827 76.5642 197.346 76.7589 196.886 77.0231L31.6411 171.94C31.5641 171.985 31.4886 172.03 31.4144 172.077C24.8253 165.742 19.0027 158.397 14.1921 150.108C2.53282 130.016 -1.32451 107.577 1.6859 86.2704L138.439 7.71885C146.341 10.8948 153.863 15.0777 160.791 20.2102L76.7285 68.4956C73.9376 70.0987 72.9837 73.6532 74.5979 76.4348C76.212 79.2164 79.7831 80.1717 82.574 78.5686L170.273 28.1943C175.577 33.2574 180.39 38.9718 184.584 45.3035L113.053 86.3915C110.256 87.9976 109.301 91.5589 110.918 94.3458C112.535 97.1327 116.113 98.0899 118.909 96.4837L190.458 55.3857ZM63.0938 192.634C55.2264 189.432 47.7407 185.229 40.8491 180.082L200.518 88.3678C205.196 126.86 186.996 166.17 151.165 186.752C128.174 199.958 102.1 203.054 78.1316 197.427L142.32 160.557C145.111 158.954 146.065 155.399 144.451 152.618C142.837 149.836 139.266 148.881 136.475 150.484L63.0938 192.634ZM123.313 2.97675C99.4829 -2.48952 73.6121 0.654789 50.7813 13.7689C27.9505 26.8829 12.2781 47.6012 5.12115 70.8666L123.313 2.97675ZM47.1988 92.1713C45.5846 89.3898 46.5385 85.8353 49.3294 84.2322L59.4749 78.4046C62.2658 76.8015 65.8368 77.7568 67.451 80.5384C69.0652 83.32 68.1113 86.8745 65.3204 88.4776L55.1749 94.3052C52.384 95.9083 48.813 94.9529 47.1988 92.1713Z" fill="#333869"/>
</svg>
